<svg id="Layer_1" data-name="Layer 1" xmlns="http://www.w3.org/2000/svg" viewBox="0 0 512 335.45"><defs><style>.cls-1{fill:#ffd250;}.cls-2{fill:#963c3c;}.cls-3{fill:#5aa587;}.cls-4{fill:#ff7350;}.cls-5{fill:#464655;}</style></defs><path class="cls-1" d="M503.17,0H8.83A8.83,8.83,0,0,0,0,8.83V326.62a8.83,8.83,0,0,0,8.83,8.83H503.17a8.83,8.83,0,0,0,8.83-8.83V8.83A8.83,8.83,0,0,0,503.17,0Z"/><path class="cls-2" d="M185.38,35.31V300.14a8.83,8.83,0,0,0,8.83,8.83H476.69a8.83,8.83,0,0,0,8.83-8.83V35.31a8.83,8.83,0,0,0-8.83-8.83H194.21A8.83,8.83,0,0,0,185.38,35.31Z"/><path class="cls-3" d="M92.69,26.48H35.31a8.84,8.84,0,0,0-8.83,8.83V300.14A8.84,8.84,0,0,0,35.31,309H92.69Z"/><path class="cls-4" d="M150.07,26.48H92.69V309h57.38a8.84,8.84,0,0,0,8.83-8.83V35.31A8.83,8.83,0,0,0,150.07,26.48Z"/><path class="cls-1" d="M393.55,238.46c-.29-2,1.44-4.52,4.13-8.18a30.89,30.89,0,0,0,2.75-4.16,8.07,8.07,0,0,0-.85,0,6.39,6.39,0,0,1-5.69-2,4.15,4.15,0,0,1-1.07-3.09c.15-2.37,2.08-4.7,3.28-5.93a65.64,65.64,0,0,1-8.78-7.17c-5.22-5.21-11.16-7.72-17.73-7.58-.61,6.53,2.76,10.82,6.35,15.34,1.06,1.33,2.12,2.66,3.07,4.05,4.73,6.84,3.74,20.05,3.14,21.45-.68,1.59-4.41,5.1-9.54,4.42a9.07,9.07,0,0,0-6.78,2,4.32,4.32,0,0,0-1.61,3.15c0,.07,0,.44.12.5.69.42,3.26-.39,5.1-1.39a1.36,1.36,0,0,1,1.57.2c3.62,3.4,7.26.47,7.66.12a1.36,1.36,0,0,1,1.73,0c3.71,3,7.58-.28,7.74-.42a1.37,1.37,0,0,1,1.63-.11,5,5,0,0,0,4.39.91,3.27,3.27,0,0,0,1.83-1.47,45.24,45.24,0,0,0-1.19-5.25C394.28,241.84,393.76,239.81,393.55,238.46Z"/><path class="cls-1" d="M433.71,113.39a3,3,0,0,0-2.48.7,4.18,4.18,0,0,0-.93,2.83,1.38,1.38,0,0,1-.43,1.07,1.35,1.35,0,0,1-1.1.35c-2-.26-5-2.38-10.49-6.42-8.75-6.41-22-16.11-34.61-17.71C369,92.35,355.94,97,352.62,105.33c-3.69,9.23,4.16,17.65,4.24,17.73a1.35,1.35,0,0,1,.21,1.57A6.88,6.88,0,0,0,358,133a4.81,4.81,0,0,1,2-2.73c2.2-1.32,5.08-.23,9.06,1.27a67.8,67.8,0,0,0,8.11,2.66c8,1.95,17.68.21,26.25-1.32,3-.54,5.95-1.07,8.67-1.41,6.83-.87,13.69,2.16,15.57,6.9.91,2.3,1.4,6.92-5.58,12-12.56,9.13-69.82,4.91-73.19,4.66l-.31,0c1.25,1.41,2.72,2.78,3.36,2.95a1.35,1.35,0,0,1,1,1.47,1.36,1.36,0,0,1-1.32,1.19l-5.87.09.54,5.64a1.38,1.38,0,0,1-.42,1.12,1.44,1.44,0,0,1-1.14.35,31.58,31.58,0,0,1-8.79-2.79l-6.63,4.17a1.34,1.34,0,0,1-.72.21,1.31,1.31,0,0,1-.44-.07,1.36,1.36,0,0,1-.83-.81l-2.53-6.88-3,6a1.34,1.34,0,0,1-1.14.75,1.29,1.29,0,0,1-1.21-.64l-2.57-4.09a26.56,26.56,0,0,1-5,4.94,1.35,1.35,0,0,1-2.06-.71l-1.34-4.24a34.61,34.61,0,0,1-4.74,5,1.35,1.35,0,0,1-2.21-.95l-.43-6.84a41,41,0,0,1-4.81,2.18,1.36,1.36,0,0,1-1.46-.45,1.34,1.34,0,0,1-.11-1.52c2.08-3.62,4-8.15,4.15-10.4a42,42,0,0,1-5.49,5c-4.61,3.75-10.34,8.41-14.56,16.57-2.94,5.71-5.06,15.66-1.33,24.94,3.19,7.91,10,13.82,20.31,17.61a21.54,21.54,0,0,1-.63-4.35,62.84,62.84,0,0,1,1.38-13.71,1.35,1.35,0,1,1,2.64.6,62.25,62.25,0,0,0-1.32,13.06c.07,3.27,1.47,7.3,2.83,11.21,1.81,5.18,3.68,10.55,2.86,15.06-1.1,6.14-8.74,7.69-15.83,6.51a5.94,5.94,0,0,0-5.17,1.39,6.16,6.16,0,0,0-1.83,5.11c.08.92.43,1.11.54,1.17.85.46,2.86-.16,4-.73a1.35,1.35,0,0,1,1.64.3c2.84,3.18,6.67,0,6.83-.14a1.35,1.35,0,0,1,1.86.11,4.85,4.85,0,0,0,3.47,1.74c2.31.14,4.5-1.92,4.53-1.93a1.35,1.35,0,0,1,1.5-.26c4.46,2,6.81.85,6.9.8,3.88-3.31,1.64-11.14,1.61-11.22a1.4,1.4,0,0,1,.13-1.06,1.34,1.34,0,0,1,.87-.64,15.84,15.84,0,0,0,9.92-7c-2.68,0-4.81-1-6.06-2.93-2-3.16-1.05-7.93,2.47-12.14,6-7.2,9.72-21.78,9.16-27.72a1.36,1.36,0,0,1,2.7-.25c.48,5.2-1.86,16-6.14,24.12a103.54,103.54,0,0,0,15.53-6A140,140,0,0,1,361,199.08c10.78-3.38,20.29-1,28.28,6.95,3.86,3.87,8.09,6.7,13,10,2.14,1.44,4.38,2.94,6.7,4.61,6.28,4.53,6.17,8.31,6.05,12.3a31.35,31.35,0,0,0,.06,3.85c.65,6.49-4.51,7.52-7,8-.34.07-.66.13-.94.2s-.77.18-1.23.27c-2.53.51-6.33,1.28-7.27,4.51a1.5,1.5,0,0,0-.1.78c.39.18,2.46-.29,4.1-1a1.36,1.36,0,0,1,1.1,0,1.33,1.33,0,0,1,.74.8c.48,1.4,1.23,1.64,1.47,1.72,1.71.53,4.5-1,5.34-1.63a1.36,1.36,0,0,1,1.7.1c1.39,1.28,2.69,1.84,3.85,1.68a4,4,0,0,0,2.5-1.69,1.39,1.39,0,0,1,1-.64,1.44,1.44,0,0,1,1.13.44,8.78,8.78,0,0,0,3.61,2c1.59.5,2-.07,2.12-.26.67-1,.43-3.48-.88-5.12a11,11,0,0,1-2-8.31,9.06,9.06,0,0,1,4.17-6.3c4.18-2.66,5.13-5.53,4.86-6.07a6.69,6.69,0,0,0-.89-.15c-1.87-.24-5-.66-8.19-6.58-2.84-5.23-.1-13.51,3.08-23.1a137.61,137.61,0,0,0,4.3-14.81c2.84-13.63-6.09-24.45-6.18-24.56a1.36,1.36,0,0,1,.11-1.86c6.27-5.88,9-11.33,8-16.19-1-5.08-5.91-8.63-9.81-10.12-4.87-1.87-13.75-.81-22.35.21-7.18.85-14,1.66-18.34.75a7.25,7.25,0,0,1-4.92-3.18,7.66,7.66,0,0,1-1-4,9.24,9.24,0,0,0-3.66,2.86,1.36,1.36,0,0,1-1.08.57,1.28,1.28,0,0,1-1.09-.53,6.08,6.08,0,0,1-1.32-4.69,10.06,10.06,0,0,1,2.85-5.26c-5-1.77-8.89,2.45-9.07,2.65a1.36,1.36,0,0,1-1.72.26,8.5,8.5,0,0,1-3.84-7.47,7.54,7.54,0,0,1,4.06-6.6,5.7,5.7,0,0,1,4.86-.5,6.64,6.64,0,0,1,3.1,2.62c1.84-2.1,2-5.73,2-5.77a1.34,1.34,0,0,1,.43-1,1.29,1.29,0,0,1,1-.36,9.43,9.43,0,0,1,7.39,3.44c2.32,2.94,2.54,7,2.41,9.55,5.12-2.61,4.47-8.64,4.43-8.92a1.38,1.38,0,0,1,.5-1.22,1.35,1.35,0,0,1,1.3-.22c5.43,1.92,7.41,6.76,7.87,10.37a5.11,5.11,0,0,0,1.56-3.38,1.36,1.36,0,0,1,2.55-.65,19.85,19.85,0,0,0,7.62,7.55l-1.61-3.9a1.36,1.36,0,0,1,1.9-1.71,51.34,51.34,0,0,1,7.05,4.81,48.79,48.79,0,0,0,9.46,6.1c3.85,1.81,6.45,1.47,8,.86a4.84,4.84,0,0,0,2.72-2.49,5.73,5.73,0,0,0-.17-4.84A3.39,3.39,0,0,0,433.71,113.39Z"/><path class="cls-1" d="M274,132.85h0a93.65,93.65,0,0,0,19.4,3.77,1.35,1.35,0,0,1,1.16.81,1.37,1.37,0,0,1-.18,1.39l-.33.4a46.29,46.29,0,0,1,6.37-.53c-.92-1.1-2.07-2.49-3.25-3.95-2.45-.05-11.44-.44-18.76-4-1.78-.86-4.85-2.35-6.31-1.59a1.66,1.66,0,0,0-.6,1.49C271.56,131.62,272.44,132.39,274,132.85Z"/><path class="cls-1" d="M304.44,113.29a1.23,1.23,0,0,0-.39,0,1.61,1.61,0,0,0-1,1.36,2,2,0,0,0,3.54,1.68,1.81,1.81,0,0,0,.44-2.26h0A7.49,7.49,0,0,0,304.44,113.29Z"/><path class="cls-1" d="M291.16,145.91a11.06,11.06,0,0,0,2.51,3.59,5,5,0,0,1,1.54-1.95,4.66,4.66,0,0,1,3.81-.66h.09a.68.68,0,0,0,.14,0c.05,0,.08.05.13.07a.7.7,0,0,1,.19.06.54.54,0,0,1,.12.09,2.85,2.85,0,0,1,1.57,1.48c1,2.4-.78,7-2.37,10.34,1.13-.55,2.2-1.12,2.79-1.43a1.34,1.34,0,0,1,1.29,0,1.36,1.36,0,0,1,.7,1.1l.38,6a44.17,44.17,0,0,0,3.8-4.68,1.35,1.35,0,0,1,2.41.35l1.54,4.88a34.36,34.36,0,0,0,4.07-4.68A1.42,1.42,0,0,1,317,160a1.34,1.34,0,0,1,1.11.64l2.33,3.71,3.32-6.64a1.29,1.29,0,0,1,1.29-.75,1.36,1.36,0,0,1,1.19.88l3,8.24,5.92-3.73a1.33,1.33,0,0,1,1.46,0,22.65,22.65,0,0,0,6.76,2.49l-.5-5.29a1.3,1.3,0,0,1,.34-1,1.32,1.32,0,0,1,1-.46l3.39,0c-.82-.82-1.49-1.62-1.82-2a1.32,1.32,0,0,1-.29-.92,27,27,0,0,1-9.44-2.05L334,156.19a1.41,1.41,0,0,1-.86.59,1.32,1.32,0,0,1-.28,0,1.3,1.3,0,0,1-.75-.23l-7.82-5.24-1.43,3.91a1.35,1.35,0,0,1-1,.86,1.31,1.31,0,0,1-1.26-.44c-1.34-1.54-3.45-3.9-4.71-5.19a27.12,27.12,0,0,1-5.23,4,1.37,1.37,0,0,1-1.12.09,1.35,1.35,0,0,1-.8-.8L306.57,148a1.36,1.36,0,0,1,2.54-.95l1.56,4.2a30.11,30.11,0,0,0,4.19-3.63,1.35,1.35,0,0,1,1.83-.14c.79.63,2.93,3,4.42,4.66l1.25-3.39a1.36,1.36,0,0,1,.85-.82,1.31,1.31,0,0,1,1.17.16l8.11,5.44,2-3a1.35,1.35,0,0,1,1.74-.47,24.25,24.25,0,0,0,10,2.3,17.38,17.38,0,0,1-1.66-7.26,30.33,30.33,0,0,1-7-4.3l-1,2.41a1.36,1.36,0,0,1-2.05.59L330.54,141l-.38,2.93a1.36,1.36,0,0,1-2.05,1,27.5,27.5,0,0,1-5.27-4.2,1.36,1.36,0,0,1,2-1.8,18.91,18.91,0,0,0,2.89,2.5l.39-3a1.35,1.35,0,0,1,2.14-.92l4.35,3.16,1-2.57a1.36,1.36,0,0,1,2.18-.48,27.86,27.86,0,0,0,9.3,5.73,67.74,67.74,0,0,1-1.09-8.38s0-.06,0-.09a26.62,26.62,0,0,1-7.67-6.32,14.12,14.12,0,0,1-.56,4.44,1.33,1.33,0,0,1-.8.79,1.39,1.39,0,0,1-1.13-.09,23.85,23.85,0,0,1-5.3-4.26,17.46,17.46,0,0,1-1.22,3.44,1.35,1.35,0,0,1-1.76.51,21.28,21.28,0,0,1-4-2.72,22.14,22.14,0,0,1-.86,4.83,1.33,1.33,0,0,1-.79.77,1.38,1.38,0,0,1-1.11-.08,45.57,45.57,0,0,1-4.67-3l-.59,2.25a1.36,1.36,0,0,1-1.87.89,19.86,19.86,0,0,1-6.24-4.54,1.36,1.36,0,1,1,2.1-1.72,14.42,14.42,0,0,0,3.82,3l.7-2.64a1.37,1.37,0,0,1,.92-.95,1.35,1.35,0,0,1,1.3.3,30.54,30.54,0,0,0,4.28,3.08c.27-1.67.47-4.09.56-5.65a1.35,1.35,0,0,1,2.54-.57,11.74,11.74,0,0,0,3.88,3.55c.37-1.16.83-2.87,1.17-4.34a1.35,1.35,0,0,1,1.19-1,1.33,1.33,0,0,1,1.36.79,13.49,13.49,0,0,0,4.36,4.63,42.45,42.45,0,0,0-.17-6.53,1.35,1.35,0,0,1,1-1.44,1.37,1.37,0,0,1,1.59.7,23,23,0,0,0,10,9.87c1.36-14.94-3-20.65-3.06-20.71a1.36,1.36,0,0,1-.28-1.1,1.4,1.4,0,0,1,.65-.92,11.92,11.92,0,0,0,4.81-6.47c-5.5,5.33-14.22,7.38-18.46,8.09l2.07,2.53a1.33,1.33,0,0,1,.2,1.37,1.36,1.36,0,0,1-1.11.83,27.47,27.47,0,0,1-11.56-1l.89,1.63a1.37,1.37,0,0,1-.05,1.37,1.28,1.28,0,0,1-1.2.63c-4.24-.18-8-1.93-11-3.47a4.82,4.82,0,0,1-1.45,2.76A5.05,5.05,0,0,1,305,119.8a4.6,4.6,0,0,1-2.56-.77,4.76,4.76,0,0,1-2-4.73,4.28,4.28,0,0,1,2.87-3.56c2-.59,4.32.57,7.24,2.06a33.32,33.32,0,0,0,8.07,3.21l-1.67-3.1a1.34,1.34,0,0,1,.34-1.7,1.37,1.37,0,0,1,1.74,0s3.39,2.79,11,2.65l-1.93-2.35a1.33,1.33,0,0,1-.2-1.38,1.36,1.36,0,0,1,1.12-.83c.15,0,11.25-1.14,18.08-6.64a12.63,12.63,0,0,1-4.08.54,1.36,1.36,0,0,1-.95-.5c-3.13-3.94-6.33-5.15-7.95-5.53a15.17,15.17,0,0,1-3.21,5.28,1.35,1.35,0,0,1-2.12-.22,10.75,10.75,0,0,0-7.92-5.17,7.44,7.44,0,0,1-3.1,6.22,1.34,1.34,0,0,1-1.7-.08c-5.81-5.19-10.3-3.65-12.11-2.62a4,4,0,0,1-.09,3.38c-2.77,5.61-19.92,6.74-23.33,6.91a1.36,1.36,0,0,1-1.38-1.7,3.62,3.62,0,0,0-.47-2.84,3.93,3.93,0,0,0-2.41-1.8,4.07,4.07,0,0,0-3.61,1.05c-1.17,1.28-1.24,3.64-.23,6.84,1.81,5.74,7.41,11.39,10.89,14.49,0-.71,0-1.24,0-1.37a1.36,1.36,0,0,1,1-1.23,1.34,1.34,0,0,1,1.48.53,13.21,13.21,0,0,0,3.56,3.46L290,124a1.36,1.36,0,0,1,1.18-1.13,1.38,1.38,0,0,1,1.41.83c1.23,3,9,12.3,11.88,15.64a1.35,1.35,0,0,1,.16,1.53,1.38,1.38,0,0,1-1.38.7c-5-.71-12.21.94-12.28.95a1.35,1.35,0,0,1-1.36-2.16l1-1.25a97.84,97.84,0,0,1-16.26-3.31L272.12,142l6.12-.61a1.34,1.34,0,0,1,1.22.54,1.36,1.36,0,0,1,.17,1.32l-1.16,2.82,5-1.33a1.34,1.34,0,0,1,1.61.81,10.87,10.87,0,0,0,2.14,3.49l1.42-3.14a1.33,1.33,0,0,1,1.25-.8A1.35,1.35,0,0,1,291.16,145.91Z"/><path class="cls-1" d="M273.63,215.11c5.34,3.56,9.65-.51,12-3.64A30.26,30.26,0,0,1,275,198.22a29.3,29.3,0,0,1-1.49-5.19,127.67,127.67,0,0,1-14.15-13.15,8.08,8.08,0,0,1-1.07,1.94,5.48,5.48,0,0,1-.54,4.15,4.82,4.82,0,0,1-.36,3.44,4.11,4.11,0,0,1,.51,4.15,5.31,5.31,0,0,1-.52.86c.77.94,2,3.08,2,7.38a8,8,0,0,0,1.87,5.52,2.8,2.8,0,0,1,1.54-.69c1.71-.19,3.11,1.27,5,3.28A33.93,33.93,0,0,0,273.63,215.11Z"/><path class="cls-1" d="M247.09,178.42h-.31a29.5,29.5,0,0,1-5.36-.53,2.85,2.85,0,0,0,.53,2,1.41,1.41,0,0,1,.56,1.14,1.37,1.37,0,0,1-.55,1.1,2.17,2.17,0,0,0-.93,1.38c0,.58.68,1.18,1.09,1.49a1.33,1.33,0,0,1,.53.94,1.36,1.36,0,0,1-.32,1,2.41,2.41,0,0,0-.59,1.59c0,.13.08.54.78,1a1.42,1.42,0,0,1,.58.9,1.4,1.4,0,0,1-.26,1,1.53,1.53,0,0,0-.23,1.11c.16.61.92,1.08,1.53,1.37a12.2,12.2,0,0,0,4.49.94h.16a11.54,11.54,0,0,0,4.18-.56,4,4,0,0,0,2.44-2c.12-.27.37-.82-.69-2.06a1.36,1.36,0,0,1-.05-1.71s.9-1.24.35-2.23a1.35,1.35,0,0,1,.22-1.62,2.74,2.74,0,0,0,.25-2.85,1.35,1.35,0,0,1,.34-1.46,4.87,4.87,0,0,0,1.25-3.26l-.5-.61A24.38,24.38,0,0,1,247.09,178.42Z"/><path class="cls-1" d="M259.46,84.1C254,87,242.32,96.27,242,121.53l.31,42.57c0,.06.08.12.11.18a5.67,5.67,0,0,1,0,4.25,18.38,18.38,0,0,0,9.4.27,5.24,5.24,0,0,1,.58-4.69C252.17,113.34,257,91.75,259.46,84.1Z"/><path class="cls-1" d="M260,169.4a4.83,4.83,0,0,0-3.25-4.4c-.33-.11-1.47-.43-2,.26a2.69,2.69,0,0,0-.3,3.06,2.5,2.5,0,0,1,.23,1.56,1.77,1.77,0,0,1-1.07,1.13c-1.83.84-8.82,1.93-13.64-.56a1.35,1.35,0,0,1-.59-1.8c.51-1,.87-2.57.59-3.11,0,0-.08-.16-.47-.21a7.71,7.71,0,0,0-1.07-.08,5.57,5.57,0,0,0-4,1.41,2.91,2.91,0,0,0-.63,2.76c.8,3.88,5.65,6.23,13,6.29,5.18,0,9.63-1.24,11.85-3.44A4,4,0,0,0,260,169.4Z"/><path class="cls-1" d="M248.38,201.51a1.32,1.32,0,0,1,1.34-.51c.94.2,3.28.69,4.62-.35a1.7,1.7,0,0,0,.21-2c-.12-.22-.49-.88-1.9-.34s-3.25,1.07-4.46,0a2.2,2.2,0,0,1-.51-.73c-.36,0-.72-.05-1.07-.11a2.22,2.22,0,0,1-.55.84c-1.2,1.08-3.11.52-4.45,0s-1.78.12-1.91.34a1.7,1.7,0,0,0,.22,2c1.34,1,3.68.55,4.45.38a1.53,1.53,0,0,1,1.43.48,1.35,1.35,0,0,1,.21,1.42,31.7,31.7,0,0,1-2.92,4.82c1.69,2.47,3.16,6.88-.27,10.8a1.42,1.42,0,0,1-1.12.46,1.34,1.34,0,0,1-1-.62,3.19,3.19,0,0,0-1.64-1.26,1.4,1.4,0,0,0-1.12.29,1.84,1.84,0,0,0-.25,2c.53,1.58,2.19,2.46,4.53,2.35a1.39,1.39,0,0,1,1.33.85,1.36,1.36,0,0,1-.38,1.53L240.92,226l3.6.88a1.36,1.36,0,0,1,1,1,14.29,14.29,0,0,0,1.62,3.56,14.29,14.29,0,0,0,1.62-3.56,1.36,1.36,0,0,1,1-1l3.61-.88-2.21-1.89a1.36,1.36,0,0,1-.38-1.53,1.35,1.35,0,0,1,1.32-.85c2.32.11,4-.77,4.54-2.36a1.83,1.83,0,0,0-.25-1.94,1.39,1.39,0,0,0-1.13-.29,3.22,3.22,0,0,0-1.63,1.26,1.35,1.35,0,0,1-1,.62,1.37,1.37,0,0,1-1.12-.46c-3.43-3.92-2-8.33-.27-10.8a32,32,0,0,1-2.93-4.82A1.35,1.35,0,0,1,248.38,201.51Z"/><path class="cls-5" d="M438.81,113.37a6,6,0,0,0-4.93-2.68,5.59,5.59,0,0,0-4.57,1.5,5.81,5.81,0,0,0-1.54,2.94,81.72,81.72,0,0,1-7.89-5.39c-9-6.58-22.55-16.53-35.87-18.22-10.8-1.37-23.09.79-29.85,7.06.1-.83.13-1.39.14-1.48s0,0,0,0a1.3,1.3,0,0,0-.2-.7.34.34,0,0,0-.09-.12,1.21,1.21,0,0,0-.58-.46h0a1.28,1.28,0,0,0-.75,0l-.14,0a1.32,1.32,0,0,0-.6.42l0,0a10.56,10.56,0,0,1-8.08,4.31c-5.07-6-10.42-6.2-10.65-6.21a1.34,1.34,0,0,0-1.37,1.16A9.34,9.34,0,0,1,330,99.31a13.27,13.27,0,0,0-11-5,1.35,1.35,0,0,0-1,.67,1.39,1.39,0,0,0-.06,1.24,3.78,3.78,0,0,1-.95,4.17c-8.79-7-15.55-1.31-15.62-1.24a1.34,1.34,0,0,0-.22,1.78c.65,1,.54,1.48.36,1.83-1.42,2.88-11.74,4.76-19.47,5.32a6.57,6.57,0,0,0-11.31-4.32c-1.88,2.06-2.15,5.25-.81,9.48,2.1,6.61,8.38,12.82,12,16-.89-.33-1.78-.69-2.64-1.1-2.15-1-5.76-2.81-8.43-1.42a4.29,4.29,0,0,0-2.05,4.14,5,5,0,0,0,3.05,4l-3,8.16a1.35,1.35,0,0,0,1.4,1.81l6-.6-1.34,3.25a1.37,1.37,0,0,0,.24,1.41,1.33,1.33,0,0,0,1.36.41l6.55-1.73a10.61,10.61,0,0,0,4.06,4.74,1.35,1.35,0,0,0,1.86-.64l1-2.31a14.07,14.07,0,0,0,3,3.07c-.44.37-.88.73-1.36,1.11-4.54,3.7-10.77,8.77-15.25,17.44a35.3,35.3,0,0,0-3.47,18.05A112.48,112.48,0,0,1,259,175.34a10.89,10.89,0,0,0,1.56-1.16,6.73,6.73,0,0,0,2.16-4.79,7.5,7.5,0,0,0-5.08-7,5.31,5.31,0,0,0-2.59-.21c-.08-59,6.64-77,8-80.08a1.35,1.35,0,0,0-1.61-1.85c-.89.26-21.71,6.77-22.17,41.23l.29,41.11a8.5,8.5,0,0,0-7.08,2.17,5.58,5.58,0,0,0-1.31,5.17c.7,3.38,3.43,5.88,7.62,7.25a4.59,4.59,0,0,0-.1,1.51,6,6,0,0,0,.66,2.19,4.13,4.13,0,0,0-1,2.55,4,4,0,0,0,1.22,2.9,4.5,4.5,0,0,0-.49,2.57,4,4,0,0,0,1,2.15,3.93,3.93,0,0,0-.1,2.21,4.2,4.2,0,0,0,1.57,2.28,3.79,3.79,0,0,0-4.21,1.76,4.36,4.36,0,0,0,.92,5.45,6.14,6.14,0,0,0,4.09,1.2,11.8,11.8,0,0,1-1.88,2.6,1.37,1.37,0,0,0-.51.95,1.34,1.34,0,0,0,.34,1c.14.15,3.09,3.48,1.34,6.93a5,5,0,0,0-2.09-1,4.08,4.08,0,0,0-3.18.72,4.35,4.35,0,0,0-1.29,5,6.09,6.09,0,0,0,4,3.8l-1.9,1.63a1.36,1.36,0,0,0-.43,1.34,1.33,1.33,0,0,0,1,1l5.43,1.32a14.13,14.13,0,0,0,3,5.09,1.7,1.7,0,0,0,1.09.4,1.37,1.37,0,0,0,1-.4,14.13,14.13,0,0,0,3-5.09l5.42-1.32a1.35,1.35,0,0,0,.56-2.34L255.2,224a6.09,6.09,0,0,0,4-3.8,4.35,4.35,0,0,0-1.29-5,4.1,4.1,0,0,0-3.19-.72,5,5,0,0,0-2.08,1c-1.73-3.43,1.2-6.78,1.34-6.94a1.37,1.37,0,0,0,.34-1,1.32,1.32,0,0,0-.52-.95,11.92,11.92,0,0,1-1.87-2.6,6.43,6.43,0,0,0,4.09-1.2,3.59,3.59,0,0,0,.67-.78c.09,5.94,3.86,8.29,4,8.39a1.35,1.35,0,0,0,1.85-.46,2.13,2.13,0,0,1,.51-.63c.47,0,1.81,1.44,2.78,2.46a36.23,36.23,0,0,0,6.31,5.58,10.07,10.07,0,0,0,5.62,1.86c4.87,0,8.52-4.11,10.08-6.22a49.58,49.58,0,0,0,10.4,4.89,1.12,1.12,0,0,0,.4.07c.47,1.52,1,3.05,1.51,4.56,1.69,4.86,3.44,9.88,2.75,13.7-.89,4.94-8.71,5-12.73,4.31a8.65,8.65,0,0,0-7.46,2.09A8.87,8.87,0,0,0,280,250a3.87,3.87,0,0,0,2,3.29c1.8,1,4.24.24,5.57-.3,3.05,2.65,6.69,1.54,8.9.14a7.17,7.17,0,0,0,4.5,1.76h.16a9.58,9.58,0,0,0,5.6-2.1c5.24,2.12,8.24.54,8.76.22,4.26-3.59,3.56-10,3-12.85a18.45,18.45,0,0,0,11.69-10.58,1.36,1.36,0,0,0-.28-1.38,1.39,1.39,0,0,0-1.35-.39c-2.69.73-4.82.24-5.84-1.35-1.37-2.15-.48-5.66,2.27-8.95a26.74,26.74,0,0,0,1.66-2.25c6.76-1.51,12.53-4.14,18.64-6.92a137.58,137.58,0,0,1,16.51-6.64,29.47,29.47,0,0,1,5.1-1.09c-.5,7.33,3.26,12.16,6.95,16.81,1,1.28,2,2.56,3,3.9,4,5.74,3.2,17.76,2.88,18.84a7.3,7.3,0,0,1-6.7,2.81,11.7,11.7,0,0,0-8.92,2.62,6.9,6.9,0,0,0-2.54,5.18,3,3,0,0,0,1.44,2.83c2,1.17,5.21-.08,6.94-.91a7.84,7.84,0,0,0,4.84,1.72,9.08,9.08,0,0,0,4.85-1.51c3.62,2.29,7.42.95,9.54-.49a7.07,7.07,0,0,0,6.16.61,6.51,6.51,0,0,0,1.23-.65.93.93,0,0,0,.16.18c1.44,1.24,4.1.58,5.81,0a4.7,4.7,0,0,0,2.61,2.13c2.51.79,5.39-.58,6.83-1.44a6.94,6.94,0,0,0,5.25,1.69,6.19,6.19,0,0,0,3.44-1.77,12.83,12.83,0,0,0,3.65,1.8,6.24,6.24,0,0,0,1.91.32,3.81,3.81,0,0,0,3.25-1.63c1.57-2.29.75-6.16-1-8.34a8.27,8.27,0,0,1-1.47-6.18,6.39,6.39,0,0,1,2.95-4.46c3.67-2.34,6.09-5.51,6.14-8.07a2.78,2.78,0,0,0-1.13-2.45,4.62,4.62,0,0,0-2.14-.67c-1.61-.21-3.61-.47-6.17-5.19-2.27-4.2.42-12.34,3.28-21a140.12,140.12,0,0,0,4.38-15.11c2.61-12.57-3.7-22.7-6-25.85,6.35-6.25,9-12.25,7.92-17.84-1.21-6.16-6.95-10.39-11.5-12.13-5.5-2.11-14.72-1-23.64.06-6.95.83-13.52,1.62-17.47.78a4.59,4.59,0,0,1-3.15-1.93,5.72,5.72,0,0,1-.48-3.91,1.35,1.35,0,0,0-1.36-1.7,9.5,9.5,0,0,0-5.94,2.74,3.49,3.49,0,0,1,0-1.12c.35-2.6,3.35-4.88,3.38-4.9a1.35,1.35,0,0,0-.11-2.24c-5.51-3.35-10.66-.87-13.29,1.47a6,6,0,0,1-1.73-4.44,4.87,4.87,0,0,1,2.62-4.3,3.13,3.13,0,0,1,2.63-.36,5,5,0,0,1,2.39,2.66,1.34,1.34,0,0,0,.82.79,1.36,1.36,0,0,0,1.13-.11c3-1.76,4-5.46,4.29-7.51a6.26,6.26,0,0,1,4.1,2.28c2.76,3.48,1.63,9.61,1.62,9.67a1.39,1.39,0,0,0,.41,1.25,1.37,1.37,0,0,0,1.27.31,11.09,11.09,0,0,0,8.39-10.29c4.68,2.92,4.36,9,4.34,9.23a1.36,1.36,0,0,0,1.86,1.35,7.81,7.81,0,0,0,4.17-3.75A23.36,23.36,0,0,0,411.39,120a1.37,1.37,0,0,0,1.41-.38,1.34,1.34,0,0,0,.26-1.43l-1.33-3.2c1.08.75,2.12,1.55,3.18,2.37a51.05,51.05,0,0,0,10,6.41c4.74,2.22,8.12,1.72,10.12.92a7.49,7.49,0,0,0,4.24-4A8.37,8.37,0,0,0,438.81,113.37Zm-2.11,6.31a4.79,4.79,0,0,1-2.72,2.48c-1.5.61-4.1,1-8-.86a48,48,0,0,1-9.46-6.1,50.41,50.41,0,0,0-7.05-4.8,1.36,1.36,0,0,0-1.55.18,1.34,1.34,0,0,0-.35,1.52l1.61,3.91a19.92,19.92,0,0,1-7.62-7.55,1.36,1.36,0,0,0-2.55.65,5.1,5.1,0,0,1-1.56,3.37c-.46-3.6-2.44-8.45-7.87-10.36a1.33,1.33,0,0,0-1.3.21,1.4,1.4,0,0,0-.5,1.22c0,.28.69,6.31-4.43,8.93.13-2.53-.08-6.62-2.41-9.56a9.46,9.46,0,0,0-7.39-3.44,1.3,1.3,0,0,0-1,.37,1.32,1.32,0,0,0-.43,1s-.16,3.67-2,5.77a6.7,6.7,0,0,0-3.1-2.62,5.77,5.77,0,0,0-4.86.5,7.55,7.55,0,0,0-4.06,6.61,8.48,8.48,0,0,0,3.84,7.46,1.36,1.36,0,0,0,1.72-.25c.18-.2,4-4.42,9.07-2.66a10.1,10.1,0,0,0-2.85,5.26,6.05,6.05,0,0,0,1.32,4.7,1.3,1.3,0,0,0,1.09.52,1.36,1.36,0,0,0,1.08-.57,9.26,9.26,0,0,1,3.66-2.85,7.53,7.53,0,0,0,1,4,7.18,7.18,0,0,0,4.92,3.18c4.38.92,11.16.11,18.34-.74,8.6-1,17.48-2.09,22.35-.22,3.9,1.5,8.82,5,9.81,10.12,1,4.87-1.73,10.32-8,16.2a1.35,1.35,0,0,0-.11,1.85c.09.11,9,10.93,6.18,24.57a138.28,138.28,0,0,1-4.3,14.81c-3.18,9.58-5.92,17.86-3.09,23.09,3.21,5.93,6.33,6.34,8.2,6.59a5.9,5.9,0,0,1,.89.14c.27.55-.69,3.41-4.86,6.07a9.06,9.06,0,0,0-4.17,6.31,11,11,0,0,0,2,8.31c1.31,1.63,1.55,4.13.88,5.11-.13.19-.53.77-2.12.27a9.06,9.06,0,0,1-3.61-2,1.4,1.4,0,0,0-1.13-.44,1.33,1.33,0,0,0-1,.63,4,4,0,0,1-2.5,1.7c-1.17.15-2.46-.41-3.85-1.68a1.36,1.36,0,0,0-1.7-.11c-.85.6-3.63,2.17-5.34,1.64-.24-.08-1-.32-1.47-1.73a1.33,1.33,0,0,0-.74-.8,1.36,1.36,0,0,0-1.1,0c-1.64.75-3.71,1.22-4.11,1a1.67,1.67,0,0,1,.11-.79c.93-3.22,4.74-4,7.26-4.51l1.24-.26c.28-.07.6-.14.94-.2,2.48-.5,7.64-1.52,7-8a31.16,31.16,0,0,1-.06-3.84c.12-4,.23-7.78-6.06-12.3-2.31-1.67-4.55-3.17-6.7-4.61-4.88-3.29-9.11-6.12-13-10-8-8-17.49-10.32-28.27-7a140,140,0,0,0-16.82,6.76,103.54,103.54,0,0,1-15.53,6c4.28-8.13,6.62-18.92,6.14-24.12a1.36,1.36,0,0,0-2.7.25c.56,5.94-3.13,20.52-9.16,27.72-3.52,4.21-4.49,9-2.47,12.14,1.25,2,3.38,2.9,6.06,2.93a15.8,15.8,0,0,1-9.92,7,1.41,1.41,0,0,0-.87.64,1.35,1.35,0,0,0-.13,1.06c0,.08,2.26,7.92-1.61,11.22-.1.06-2.44,1.24-6.9-.8a1.35,1.35,0,0,0-1.5.26s-2.22,2.07-4.53,1.93a4.81,4.81,0,0,1-3.47-1.74,1.35,1.35,0,0,0-1.86-.1c-.16.14-4,3.32-6.84.13a1.33,1.33,0,0,0-1.63-.3c-1.09.57-3.1,1.2-4,.73-.11-.06-.46-.24-.55-1.16a6.22,6.22,0,0,1,1.84-5.12,5.94,5.94,0,0,1,5.17-1.39c7.09,1.19,14.73-.37,15.83-6.51.82-4.51-1.05-9.87-2.86-15.06-1.36-3.9-2.77-7.94-2.83-11.21a61.34,61.34,0,0,1,1.32-13,1.35,1.35,0,0,0-2.64-.61,62.84,62.84,0,0,0-1.38,13.71,21.44,21.44,0,0,0,.63,4.35c-10.27-3.79-17.12-9.69-20.31-17.61-3.73-9.28-1.61-19.23,1.33-24.94,4.22-8.16,9.95-12.82,14.56-16.57a40.53,40.53,0,0,0,5.48-5c-.14,2.25-2.06,6.78-4.14,10.4a1.35,1.35,0,0,0,1.57,2,41.53,41.53,0,0,0,4.81-2.17l.43,6.83a1.36,1.36,0,0,0,2.21,1,34,34,0,0,0,4.73-5l1.35,4.25a1.36,1.36,0,0,0,.85.87,1.34,1.34,0,0,0,1.21-.17,26.27,26.27,0,0,0,5-4.94l2.57,4.1a1.3,1.3,0,0,0,1.21.63,1.32,1.32,0,0,0,1.14-.75l3-6,2.53,6.87a1.34,1.34,0,0,0,1.27.88,1.42,1.42,0,0,0,.72-.2l6.63-4.18a31.58,31.58,0,0,0,8.79,2.79,1.35,1.35,0,0,0,1.56-1.46l-.54-5.65,5.87-.09a1.35,1.35,0,0,0,.32-2.66c-.64-.17-2.1-1.54-3.36-2.95l.31,0c3.37.26,60.63,4.47,73.19-4.66,7-5.08,6.49-9.69,5.58-12-1.89-4.75-8.74-7.78-15.57-6.91-2.72.35-5.64.87-8.67,1.41-8.57,1.54-18.28,3.28-26.25,1.32a67.89,67.89,0,0,1-8.11-2.65c-4-1.51-6.86-2.6-9.06-1.28a4.8,4.8,0,0,0-2,2.74,6.9,6.9,0,0,1-.91-8.36,1.35,1.35,0,0,0-.21-1.57c-.08-.08-7.93-8.5-4.24-17.73,3.32-8.3,16.38-13,31.05-11.11,12.63,1.59,25.86,11.29,34.61,17.71,5.52,4,8.48,6.15,10.49,6.42a1.37,1.37,0,0,0,1.53-1.43,4.16,4.16,0,0,1,.93-2.82,3,3,0,0,1,2.48-.71,3.39,3.39,0,0,1,2.82,1.45A5.79,5.79,0,0,1,436.7,119.68ZM394.16,250.51a5,5,0,0,1-4.39-.9,1.35,1.35,0,0,0-1.63.11c-.16.14-4,3.4-7.74.42a1.35,1.35,0,0,0-1.73,0c-.4.34-4,3.27-7.66-.12a1.35,1.35,0,0,0-1.57-.2c-1.84,1-4.41,1.81-5.1,1.39-.11-.07-.12-.43-.12-.5a4.28,4.28,0,0,1,1.61-3.15,9.08,9.08,0,0,1,6.78-2c5.13.69,8.87-2.83,9.54-4.41.6-1.4,1.59-14.61-3.14-21.45-1-1.39-2-2.72-3.07-4.05-3.59-4.52-7-8.81-6.35-15.35,6.57-.13,12.51,2.38,17.73,7.59a64.8,64.8,0,0,0,8.78,7.16c-1.2,1.24-3.13,3.57-3.28,5.94a4.16,4.16,0,0,0,1.07,3.09,6.39,6.39,0,0,0,5.69,2,8.07,8.07,0,0,1,.85,0,30.25,30.25,0,0,1-2.75,4.15c-2.69,3.67-4.42,6.21-4.13,8.19.21,1.34.74,3.37,1.25,5.34A43.57,43.57,0,0,1,396,249,3.27,3.27,0,0,1,394.16,250.51Zm5.7-18.63c2.6-3.55,3.92-5.48,3.16-7s-2.39-1.51-3.57-1.45-2.45.12-3.55-1.11a1.39,1.39,0,0,1-.38-1.11c.09-1.54,1.84-3.55,2.84-4.54l2.34,1.59c2.13,1.43,4.34,2.91,6.63,4.56,5.12,3.69,5,6.21,4.93,10a31.72,31.72,0,0,0,.08,4.19c.37,3.76-1.77,4.48-4.83,5.09-.39.08-.75.15-1.07.23s-.7.16-1.12.24c-1.95.4-5.08,1.07-7.25,3.09-.18-.73-.4-1.58-.66-2.57-.49-1.9-1-3.86-1.18-5.06C396.08,237,398.54,233.68,399.86,231.88Zm-137.1-25.25a2.8,2.8,0,0,0-1.54.69,8,8,0,0,1-1.87-5.52c0-4.3-1.22-6.44-2-7.37a5.88,5.88,0,0,0,.52-.87,4.12,4.12,0,0,0-.51-4.15,4.82,4.82,0,0,0,.36-3.44,5.48,5.48,0,0,0,.54-4.15,8.08,8.08,0,0,0,1.07-1.94A128.65,128.65,0,0,0,273.49,193a29.3,29.3,0,0,0,1.49,5.19,30.26,30.26,0,0,0,10.61,13.25c-2.31,3.13-6.62,7.2-12,3.64a34.31,34.31,0,0,1-5.84-5.2C265.87,207.9,264.47,206.44,262.76,206.63Zm-11.32,11.92a1.37,1.37,0,0,0,1.12.46,1.35,1.35,0,0,0,1-.62,3.22,3.22,0,0,1,1.63-1.26,1.37,1.37,0,0,1,1.13.3,1.82,1.82,0,0,1,.25,1.94c-.54,1.58-2.22,2.46-4.54,2.35a1.35,1.35,0,0,0-.94,2.38l2.2,1.89-3.6.88a1.34,1.34,0,0,0-1,1,14.72,14.72,0,0,1-1.62,3.56,13.88,13.88,0,0,1-1.62-3.56,1.36,1.36,0,0,0-1-1l-3.6-.88,2.21-1.89a1.33,1.33,0,0,0,.37-1.52,1.36,1.36,0,0,0-1.32-.86c-2.34.11-4-.77-4.53-2.35a1.82,1.82,0,0,1,.25-1.94,1.42,1.42,0,0,1,1.12-.3,3.23,3.23,0,0,1,1.64,1.26,1.34,1.34,0,0,0,1,.62,1.41,1.41,0,0,0,1.12-.46c3.44-3.92,2-8.33.28-10.8a31.7,31.7,0,0,0,2.92-4.82,1.33,1.33,0,0,0-.21-1.41,1.51,1.51,0,0,0-1.43-.49c-.77.17-3.11.66-4.46-.38a1.72,1.72,0,0,1-.21-2c.12-.22.51-.88,1.91-.34s3.25,1.07,4.45,0a2.22,2.22,0,0,0,.55-.84c.35.06.71.08,1.07.11a2.2,2.2,0,0,0,.51.73c1.21,1.08,3.12.52,4.45,0s1.79.12,1.91.34a1.7,1.7,0,0,1-.21,2c-1.35,1-3.68.55-4.62.35a1.35,1.35,0,0,0-1.34.51,1.33,1.33,0,0,0-.14,1.42,32,32,0,0,0,2.93,4.82C249.48,210.22,248,214.63,251.44,218.55Zm4.39-38a1.35,1.35,0,0,0-.34,1.46,2.74,2.74,0,0,1-.25,2.85,1.36,1.36,0,0,0-.23,1.62c.56,1-.34,2.23-.34,2.23a1.37,1.37,0,0,0,0,1.71c1.07,1.24.82,1.79.7,2.06a4,4,0,0,1-2.45,2,11.51,11.51,0,0,1-4.18.56h-.16a12.19,12.19,0,0,1-4.48-.94c-.61-.29-1.37-.76-1.53-1.37a1.53,1.53,0,0,1,.23-1.11,1.35,1.35,0,0,0,.25-1,1.37,1.37,0,0,0-.57-.9c-.71-.48-.76-.89-.78-1a2.47,2.47,0,0,1,.58-1.59,1.36,1.36,0,0,0-.2-2c-.41-.31-1.1-.91-1.09-1.49a2.2,2.2,0,0,1,.92-1.38,1.35,1.35,0,0,0,.56-1.1,1.44,1.44,0,0,0-.56-1.14,2.84,2.84,0,0,1-.53-2,29.5,29.5,0,0,0,5.36.53h.3a24.39,24.39,0,0,0,9.5-1.77c.16.2.33.4.49.61A4.89,4.89,0,0,1,255.83,180.52Zm-9-4.81c-7.32-.06-12.17-2.41-13-6.29a2.91,2.91,0,0,1,.63-2.76,5.58,5.58,0,0,1,4-1.41,7.85,7.85,0,0,1,1.08.08c.38,0,.44.17.46.21.29.54-.08,2.07-.59,3.11a1.35,1.35,0,0,0,.59,1.8c4.83,2.49,11.81,1.4,13.64.57a1.79,1.79,0,0,0,1.07-1.14,2.44,2.44,0,0,0-.23-1.56,2.69,2.69,0,0,1,.3-3.06c.52-.68,1.66-.37,2-.25A4.81,4.81,0,0,1,260,169.4a4.05,4.05,0,0,1-1.36,2.87C256.44,174.47,252,175.7,246.81,175.71Zm5-6.91a18.38,18.38,0,0,1-9.4-.27,5.67,5.67,0,0,0,0-4.25c0-.06-.08-.12-.11-.18L242,121.53c.34-25.26,12-34.49,17.48-37.43-2.45,7.65-7.29,29.24-7.1,80A5.26,5.26,0,0,0,251.78,168.8Zm36.89-22.92L287.25,149a10.76,10.76,0,0,1-2.14-3.49,1.34,1.34,0,0,0-1.6-.81l-5,1.34,1.15-2.82a1.36,1.36,0,0,0-.17-1.33,1.31,1.31,0,0,0-1.21-.53l-6.12.61,2.27-6.17a98.72,98.72,0,0,0,16.25,3.31l-1,1.24a1.37,1.37,0,0,0-.09,1.57,1.35,1.35,0,0,0,1.45.6c.07,0,7.34-1.66,12.28-1a1.38,1.38,0,0,0,1.38-.69,1.35,1.35,0,0,0-.16-1.53c-2.89-3.34-10.65-12.67-11.88-15.64a1.35,1.35,0,0,0-1.4-.83A1.34,1.34,0,0,0,290,124l-.68,4.33a13.44,13.44,0,0,1-3.57-3.47,1.33,1.33,0,0,0-1.48-.52,1.36,1.36,0,0,0-1,1.23c0,.13,0,.66,0,1.37-3.49-3.1-9.08-8.75-10.9-14.49-1-3.2-.93-5.56.23-6.84a4.05,4.05,0,0,1,3.61-1.05,3.9,3.9,0,0,1,2.42,1.79,3.69,3.69,0,0,1,.47,2.85,1.35,1.35,0,0,0,1.37,1.7c3.41-.17,20.57-1.3,23.34-6.92a4,4,0,0,0,.08-3.37c1.82-1,6.3-2.57,12.11,2.62a1.35,1.35,0,0,0,1.7.08,7.46,7.46,0,0,0,3.1-6.22,10.73,10.73,0,0,1,7.92,5.16,1.36,1.36,0,0,0,1,.64,1.38,1.38,0,0,0,1.12-.41,15.62,15.62,0,0,0,3.21-5.28c1.61.37,4.81,1.59,7.94,5.52a1.35,1.35,0,0,0,1,.51,13.21,13.21,0,0,0,4.08-.55c-6.84,5.51-17.94,6.63-18.09,6.65a1.35,1.35,0,0,0-.92,2.2l1.93,2.35c-7.64.15-11-2.62-11-2.65a1.36,1.36,0,0,0-2.08,1.67l1.68,3.09a32.84,32.84,0,0,1-8.08-3.21c-2.91-1.48-5.21-2.65-7.23-2.05a4.23,4.23,0,0,0-2.87,3.56,4.75,4.75,0,0,0,2,4.73,4.57,4.57,0,0,0,2.56.77,5.09,5.09,0,0,0,3.53-1.48,4.89,4.89,0,0,0,1.46-2.77c3,1.55,6.75,3.29,11,3.48a1.32,1.32,0,0,0,1.21-.64,1.35,1.35,0,0,0,0-1.36l-.89-1.63a27.49,27.49,0,0,0,11.56,1,1.35,1.35,0,0,0,.91-2.21l-2.07-2.52c4.25-.71,13-2.76,18.47-8.1-.91,2.5-2.38,5.07-4.82,6.48a1.31,1.31,0,0,0-.64.92,1.36,1.36,0,0,0,.27,1.1c.05.06,4.42,5.77,3.06,20.7a22.92,22.92,0,0,1-10-9.86,1.35,1.35,0,0,0-2.56.74,41.19,41.19,0,0,1,.17,6.53,13.58,13.58,0,0,1-4.36-4.63,1.29,1.29,0,0,0-1.36-.79,1.35,1.35,0,0,0-1.19,1c-.34,1.47-.79,3.18-1.17,4.33a11.72,11.72,0,0,1-3.88-3.55,1.34,1.34,0,0,0-1.48-.67,1.36,1.36,0,0,0-1.06,1.24c-.08,1.57-.29,4-.55,5.66a31,31,0,0,1-4.29-3.09,1.35,1.35,0,0,0-1.29-.29,1.33,1.33,0,0,0-.93.95l-.69,2.64a14.67,14.67,0,0,1-3.83-3,1.35,1.35,0,1,0-2.09,1.71,19.85,19.85,0,0,0,6.23,4.55,1.37,1.37,0,0,0,1.14,0,1.32,1.32,0,0,0,.73-.88l.6-2.26a44.08,44.08,0,0,0,4.66,3,1.43,1.43,0,0,0,1.11.09,1.41,1.41,0,0,0,.8-.77,23,23,0,0,0,.85-4.83,22.44,22.44,0,0,0,4.05,2.72,1.36,1.36,0,0,0,1.77-.52,18.1,18.1,0,0,0,1.21-3.43,23.57,23.57,0,0,0,5.3,4.25,1.39,1.39,0,0,0,1.13.1,1.37,1.37,0,0,0,.81-.79,14.19,14.19,0,0,0,.55-4.44,26.39,26.39,0,0,0,7.67,6.31s0,.07,0,.1a66.88,66.88,0,0,0,1.08,8.38,27.74,27.74,0,0,1-9.29-5.73,1.36,1.36,0,0,0-1.22-.34,1.38,1.38,0,0,0-1,.81l-1,2.58-4.36-3.16a1.34,1.34,0,0,0-2.13.92l-.4,3a19.4,19.4,0,0,1-2.89-2.5,1.35,1.35,0,1,0-2,1.79,27.4,27.4,0,0,0,5.27,4.21,1.35,1.35,0,0,0,2-1l.39-2.93,3.91,2.84a1.36,1.36,0,0,0,1.16.21,1.35,1.35,0,0,0,.88-.8l1-2.4a29.92,29.92,0,0,0,7,4.3,17.28,17.28,0,0,0,1.65,7.25,24.12,24.12,0,0,1-10-2.3,1.35,1.35,0,0,0-1.74.48l-2,3-8.1-5.44a1.32,1.32,0,0,0-1.17-.16,1.35,1.35,0,0,0-.86.82l-1.24,3.39c-1.5-1.67-3.63-4-4.42-4.66a1.36,1.36,0,0,0-1.84.14,30.44,30.44,0,0,1-4.18,3.63l-1.56-4.2a1.35,1.35,0,1,0-2.54.94l2.14,5.76a1.33,1.33,0,0,0,.8.79,1.36,1.36,0,0,0,1.13-.08,27.12,27.12,0,0,0,5.23-4c1.25,1.3,3.36,3.66,4.7,5.2a1.36,1.36,0,0,0,1.27.44,1.34,1.34,0,0,0,1-.86l1.44-3.91,7.82,5.24a1.33,1.33,0,0,0,.75.23l.27,0a1.29,1.29,0,0,0,.86-.59l2.07-3.18a27,27,0,0,0,9.44,2.05,1.33,1.33,0,0,0,.3.92c.33.4,1,1.19,1.81,2l-3.38,0a1.37,1.37,0,0,0-1,.45,1.39,1.39,0,0,0-.34,1l.51,5.3a22.42,22.42,0,0,1-6.76-2.5,1.35,1.35,0,0,0-1.47,0L329.28,166l-3-8.24a1.35,1.35,0,0,0-1.2-.88,1.27,1.27,0,0,0-1.28.74l-3.33,6.64-2.32-3.71A1.36,1.36,0,0,0,317,160a1.43,1.43,0,0,0-1.15.57,33.08,33.08,0,0,1-4.06,4.69l-1.55-4.88a1.35,1.35,0,0,0-2.4-.35,43.53,43.53,0,0,1-3.81,4.68l-.38-6a1.36,1.36,0,0,0-.69-1.09,1.34,1.34,0,0,0-1.3,0c-.58.31-1.66.87-2.78,1.43,1.59-3.31,3.4-8,2.37-10.34a2.85,2.85,0,0,0-1.57-1.48c-.05,0-.07-.07-.12-.1s-.13,0-.2-.06-.07,0-.12-.06l-.15,0H299a4.64,4.64,0,0,0-3.81.66,4.91,4.91,0,0,0-1.54,1.94,11.06,11.06,0,0,1-2.52-3.58,1.32,1.32,0,0,0-1.22-.83A1.31,1.31,0,0,0,288.67,145.88Zm-10.28-15.11c7.31,3.53,16.3,3.92,18.76,4,1.17,1.46,2.32,2.85,3.24,3.95a46,46,0,0,0-6.36.53l.32-.4a1.36,1.36,0,0,0-1-2.2A92.92,92.92,0,0,1,274,132.85h0c-1.51-.46-2.38-1.23-2.47-2.18a1.66,1.66,0,0,1,.6-1.49C273.54,128.42,276.61,129.91,278.39,130.77Zm12.78.77a1.31,1.31,0,0,0,.56-.87l.4-2.54c.81,1.18,1.79,2.49,2.81,3.8C293.89,131.86,292.6,131.74,291.17,131.54Zm-2.38-.39c-.66-.12-1.34-.26-2-.42a1.35,1.35,0,0,0-.11-.88,1.75,1.75,0,0,1-.11-.24A14.45,14.45,0,0,0,288.79,131.15Zm17.84-14.77a2,2,0,0,1-3.55-1.68,1.62,1.62,0,0,1,1-1.36,1.2,1.2,0,0,1,.38,0,7.47,7.47,0,0,1,2.64.82h0A1.83,1.83,0,0,1,306.63,116.38Zm51.45,20.26a1.36,1.36,0,0,0,2.07-1c.22-1.7.64-2.74,1.24-3.1,1.08-.65,3.69.34,6.71,1.48a69.09,69.09,0,0,0,8.43,2.76c8.52,2.09,18.53.29,27.36-1.29,3-.53,5.86-1.05,8.54-1.39,5.59-.71,11.28,1.63,12.71,5.22,1.08,2.71-.58,5.84-4.66,8.81-11.31,8.22-65.48,4.57-71,4.18-1.47-1.4-2.05-4.27-2.22-6.15.89.28,1.49.42,1.57.44a1.33,1.33,0,0,0,.28,0,1.36,1.36,0,0,0,1.27-1.82,42.38,42.38,0,0,1-1.5-8.73,1.33,1.33,0,0,0,1.05-.14,1.35,1.35,0,0,0,.64-1c1.6-13.6-1.19-20.68-2.66-23.34a10.51,10.51,0,0,0,1-.87c.09,6.43,3.82,11.59,5.35,13.44A9.82,9.82,0,0,0,358.08,136.64Z"/><path class="cls-1" d="M222.35,67C221.83,56.06,219.24,38.43,211,38a8.49,8.49,0,0,0-7.05,2.78,1.42,1.42,0,0,1-1.16.53l-3.16-.19.57,2.09a1.38,1.38,0,0,1-.44,1.39c-.19.16-4.66,4-1.94,9,2.07,3.77,8.77,5.55,13.66,6.85a32.72,32.72,0,0,1,5.29,1.68A16.9,16.9,0,0,1,222.35,67Z"/><path class="cls-5" d="M211.1,35.33a11.44,11.44,0,0,0-8.83,3.27l-4.39-.27a1.37,1.37,0,0,0-1.13.5A1.35,1.35,0,0,0,196.5,40l.84,3.12c-2.15,2.2-4.68,6.75-1.92,11.76,2.62,4.78,10,6.74,15.33,8.16a33.05,33.05,0,0,1,4.8,1.5c3.17,1.55,5.72,5.08,7,7.86a1.36,1.36,0,0,0,1.23.77l.29,0a1.37,1.37,0,0,0,1.06-1.31C225.18,70.41,225.35,36,211.1,35.33Zm.35,25.14c-4.89-1.3-11.59-3.09-13.66-6.85-2.72-4.95,1.75-8.83,1.94-9a1.35,1.35,0,0,0,.43-1.39l-.56-2.09,3.16.19a1.4,1.4,0,0,0,1.15-.53A8.54,8.54,0,0,1,211,38c8.27.4,10.86,18,11.38,28.93a16.9,16.9,0,0,0-5.61-4.81A32.72,32.72,0,0,0,211.45,60.47Z"/><path class="cls-1" d="M448.54,67c.53-10.9,3.11-28.53,11.39-28.93A8.49,8.49,0,0,1,467,40.81a1.41,1.41,0,0,0,1.16.53l3.16-.19-.57,2.09a1.38,1.38,0,0,0,.44,1.39c.19.16,4.66,4,1.94,9-2.07,3.77-8.77,5.55-13.66,6.85a32.72,32.72,0,0,0-5.29,1.68A16.84,16.84,0,0,0,448.54,67Z"/><path class="cls-5" d="M445.73,71.87a1.36,1.36,0,0,0,1.06,1.31,1.43,1.43,0,0,0,.29,0,1.35,1.35,0,0,0,1.22-.77c1.33-2.78,3.87-6.31,7-7.86a32.25,32.25,0,0,1,4.81-1.49c5.36-1.43,12.7-3.38,15.33-8.17,2.75-5,.23-9.56-1.92-11.76L474.4,40a1.36,1.36,0,0,0-.26-1.21,1.34,1.34,0,0,0-1.13-.49l-4.38.26a11.56,11.56,0,0,0-8.84-3.27C445.54,36,445.72,70.41,445.73,71.87Zm8.43-9.72A16.84,16.84,0,0,0,448.54,67c.53-10.9,3.12-28.53,11.39-28.93A8.49,8.49,0,0,1,467,40.81a1.41,1.41,0,0,0,1.16.53l3.16-.19-.57,2.09a1.38,1.38,0,0,0,.44,1.39c.19.16,4.66,4,1.94,9-2.07,3.76-8.77,5.55-13.66,6.85A32.72,32.72,0,0,0,454.16,62.15Z"/><path class="cls-1" d="M448.54,268.48c.53,10.91,3.11,28.54,11.39,28.94a8.55,8.55,0,0,0,7.05-2.78,1.41,1.41,0,0,1,1.16-.53l3.16.19-.57-2.1a1.37,1.37,0,0,1,.44-1.38c.19-.16,4.66-4.05,1.94-9-2.07-3.77-8.77-5.55-13.66-6.85a33.76,33.76,0,0,1-5.29-1.68A16.75,16.75,0,0,1,448.54,268.48Z"/><path class="cls-5" d="M459.8,300.12a11.51,11.51,0,0,0,8.83-3.27l4.38.26a1.34,1.34,0,0,0,1.13-.49,1.33,1.33,0,0,0,.26-1.21l-.84-3.12c2.15-2.2,4.68-6.75,1.92-11.76-2.63-4.79-10-6.74-15.33-8.17a31.67,31.67,0,0,1-4.8-1.49c-3.18-1.55-5.72-5.08-7.05-7.86a1.33,1.33,0,0,0-1.22-.77l-.29,0a1.36,1.36,0,0,0-1.06,1.31C445.72,265,445.54,299.43,459.8,300.12ZM459.45,275c4.89,1.3,11.59,3.08,13.66,6.85,2.72,4.94-1.75,8.83-1.94,9a1.38,1.38,0,0,0-.44,1.39l.57,2.09-3.16-.19a1.42,1.42,0,0,0-1.16.53,8.49,8.49,0,0,1-7.05,2.78c-8.27-.4-10.86-18-11.39-28.93a17,17,0,0,0,5.62,4.81A32.72,32.72,0,0,0,459.45,275Z"/><path class="cls-1" d="M222.35,268.48c-.52,10.91-3.11,28.54-11.38,28.94a8.55,8.55,0,0,1-7.05-2.78,1.42,1.42,0,0,0-1.16-.53l-3.16.19.57-2.1a1.37,1.37,0,0,0-.44-1.38c-.19-.16-4.66-4.05-1.94-9,2.07-3.77,8.77-5.55,13.66-6.85a33.76,33.76,0,0,0,5.29-1.68A16.82,16.82,0,0,0,222.35,268.48Z"/><path class="cls-5" d="M225.17,263.57a1.36,1.36,0,0,0-1.06-1.3,1,1,0,0,0-.29,0,1.37,1.37,0,0,0-1.23.77c-1.32,2.79-3.87,6.31-7,7.86a30.72,30.72,0,0,1-4.8,1.5c-5.36,1.43-12.71,3.38-15.33,8.16-2.76,5-.23,9.57,1.92,11.76l-.84,3.13a1.33,1.33,0,0,0,.25,1.2,1.35,1.35,0,0,0,1.13.5l4.39-.26a11.51,11.51,0,0,0,8.83,3.27C225.35,299.43,225.18,265,225.17,263.57Zm-8.43,9.73a16.9,16.9,0,0,0,5.61-4.81c-.52,10.9-3.11,28.53-11.38,28.93a8.49,8.49,0,0,1-7.05-2.78,1.43,1.43,0,0,0-1.16-.53l-3.16.19.57-2.09a1.38,1.38,0,0,0-.44-1.39c-.19-.16-4.66-4-1.94-9,2.07-3.76,8.77-5.55,13.66-6.85A32.72,32.72,0,0,0,216.74,273.3Z"/></svg>